<svg width="14" height="14" viewBox="0 0 14 14" fill="none" xmlns="http://www.w3.org/2000/svg">
<path d="M13.5121 0.460449H0.487815C0.218204 0.460449 0 0.678653 0 0.948265V7.76668C0 8.03629 0.218204 8.25449 0.487815 8.25449H1.36281V13.3208C1.36281 13.3788 1.38578 13.4346 1.4268 13.4756C1.46781 13.5166 1.5236 13.5396 1.58157 13.5396H2.84375C2.90172 13.5396 2.9575 13.5166 2.99852 13.4756C3.03954 13.4346 3.0625 13.3788 3.0625 13.3208V8.25449H10.9375V13.3208C10.9375 13.3788 10.9605 13.4346 11.0015 13.4756C11.0425 13.5166 11.0983 13.5396 11.1562 13.5396H12.4272C12.4852 13.5396 12.5409 13.5166 12.582 13.4756C12.623 13.4346 12.6459 13.3788 12.6459 13.3208V8.25449H13.5209C13.7867 8.24957 14 8.03247 14 7.76668V0.948265C14 0.678653 13.7818 0.460449 13.5121 0.460449Z" fill="#BAB7A4"/>
</svg>
