<svg width="14" height="18" viewBox="0 0 14 18" fill="none" xmlns="http://www.w3.org/2000/svg">
<path fill-rule="evenodd" clip-rule="evenodd" d="M6.99994 0C10.8632 0 14 3.13597 14 7.00006C14 9.0328 12.9161 11.0966 11.5967 12.8321C9.66505 15.3727 7.24936 17.2094 7.24936 17.2094C7.10191 17.3214 6.8981 17.3214 6.75064 17.2094C6.75064 17.2094 4.33487 15.3727 2.40332 12.8321C1.0839 11.0965 0 9.0328 0 7.00006C0 3.13597 3.13665 0 6.99994 0ZM6.99994 4.11726C5.40954 4.11726 4.11793 5.40889 4.11793 7.00006C4.11793 8.59046 5.40956 9.88207 6.99994 9.88207C8.59032 9.88207 9.88195 8.59044 9.88195 7.00006C9.88195 5.40889 8.59032 4.11726 6.99994 4.11726Z" fill="#BAB7A4"/>
</svg>
