<svg width="14" height="10" viewBox="0 0 14 10" fill="none" xmlns="http://www.w3.org/2000/svg">
<path d="M6.45046 9.61712H12.9009C13.305 9.61712 13.5891 9.55976 13.7535 9.44505C13.9178 9.33036 14 9.16003 14 8.93403C14 8.60534 13.8999 8.25783 13.6996 7.89149C13.4993 7.52515 13.2117 7.18191 12.8368 6.86178C12.4618 6.54165 12.0082 6.28143 11.4758 6.08113C10.9434 5.88084 10.3433 5.78069 9.67569 5.78069C9.01148 5.78069 8.41319 5.88084 7.8808 6.08113C7.34838 6.28143 6.89387 6.54165 6.51725 6.86178C6.14064 7.18191 5.85304 7.52515 5.65446 7.89149C5.45585 8.25783 5.35654 8.60534 5.35654 8.93403C5.35654 9.16003 5.43786 9.33036 5.6005 9.44505C5.76315 9.55976 6.04647 9.61712 6.45046 9.61712ZM9.68085 4.86141C10.0472 4.86141 10.3861 4.76127 10.6977 4.56097C11.0093 4.36068 11.2592 4.08934 11.4476 3.74696C11.6359 3.40458 11.73 3.0194 11.73 2.59142C11.73 2.17029 11.6359 1.79281 11.4476 1.45899C11.2592 1.12517 11.0093 0.862393 10.6977 0.670657C10.3861 0.478924 10.0472 0.383057 9.68085 0.383057C9.31451 0.383057 8.97555 0.480635 8.66397 0.675793C8.35239 0.870952 8.10159 1.1363 7.91157 1.47183C7.72158 1.80737 7.62658 2.18399 7.62658 2.60169C7.62658 3.02624 7.72074 3.40886 7.90904 3.74953C8.09735 4.0902 8.34727 4.36068 8.65882 4.56097C8.97039 4.76127 9.31107 4.86141 9.68085 4.86141ZM0.903888 9.61712H4.80191C4.66838 9.42194 4.60504 9.18741 4.61188 8.91352C4.61873 8.6396 4.68207 8.35198 4.80191 8.05068C4.92174 7.74941 5.08693 7.45753 5.29748 7.17506C5.50805 6.89258 5.752 6.6435 6.02932 6.42781C5.74173 6.23606 5.41219 6.07772 5.04072 5.95276C4.66923 5.82777 4.24382 5.76528 3.76449 5.76528C3.18586 5.76528 2.66459 5.86029 2.20066 6.05032C1.73673 6.24034 1.34128 6.49028 1.01431 6.80014C0.687332 7.11 0.436537 7.4481 0.261922 7.81444C0.0873074 8.18079 0 8.54201 0 8.89811C0 9.12751 0.0693324 9.30468 0.207997 9.42964C0.346662 9.55463 0.578626 9.61712 0.903888 9.61712ZM3.76449 4.97953C4.08633 4.97953 4.38249 4.89223 4.65297 4.71761C4.92345 4.543 5.14087 4.3059 5.30521 4.00631C5.46954 3.70673 5.5517 3.37205 5.5517 3.00228C5.5517 2.63251 5.46954 2.30296 5.30521 2.01365C5.14087 1.72434 4.9226 1.49665 4.6504 1.3306C4.37821 1.16454 4.08291 1.08152 3.76449 1.08152C3.4495 1.08152 3.15591 1.16626 2.88371 1.33573C2.61152 1.50521 2.39154 1.73547 2.22377 2.02649C2.056 2.31751 1.97383 2.6462 1.97726 3.01255C1.97726 3.3789 2.05943 3.71101 2.22377 4.00888C2.38812 4.30676 2.60638 4.543 2.87857 4.71761C3.15077 4.89223 3.44607 4.97953 3.76449 4.97953Z" fill="#BAB7A4"/>
</svg>
