<svg width="11" height="12" viewBox="0 0 11 12" fill="none" xmlns="http://www.w3.org/2000/svg">
<path d="M10.3488 7.12885L2.21467 11.8253C2.01641 11.9398 1.79151 12 1.56258 12C1.33365 12 1.10876 11.9397 0.910523 11.8252C0.712289 11.7107 0.547696 11.546 0.433295 11.3477C0.318894 11.1494 0.258716 10.9245 0.258814 10.6955L0.25945 8.08708C0.259269 7.88925 0.324372 7.69689 0.444662 7.53983C0.564951 7.38278 0.733705 7.26981 0.924747 7.21844L3.9081 6.4197C4.33702 6.30469 4.33765 5.69531 3.9081 5.58093L0.924746 4.77965C0.733704 4.72829 0.564952 4.61531 0.444662 4.45826C0.324372 4.3012 0.259269 4.10885 0.25945 3.91102L0.258179 1.30448C0.258081 1.07555 0.318258 0.850624 0.432659 0.652327C0.547061 0.45403 0.711653 0.289347 0.909887 0.174838C1.10812 0.0603281 1.33301 2.78475e-05 1.56194 9.64297e-09C1.79087 -2.78283e-05 2.01578 0.0602178 2.21404 0.174679L10.3482 4.87116C10.5464 4.98561 10.711 5.15021 10.8254 5.34841C10.9398 5.54662 11 5.77145 11 6.00032C11 6.22918 10.9398 6.45401 10.8254 6.65222C10.711 6.85043 10.547 7.01439 10.3488 7.12885Z" fill="#BAB7A4"/>
</svg>
