<svg width="50" height="50" viewBox="0 0 50 50" fill="none" xmlns="http://www.w3.org/2000/svg">
<g opacity="0.62019" filter="url(#filter0_f_214_585)">
<path d="M29.0109 35.5534C26.1873 36.7327 23.062 36.8519 20.3225 35.8848C17.5829 34.9176 15.4535 32.9433 14.4027 30.3963C13.3519 27.8492 13.4658 24.938 14.7193 22.3031C15.9728 19.6681 18.2633 17.5253 21.0869 16.346C23.9104 15.1667 27.0357 15.0475 29.7753 16.0147C32.5149 16.9818 34.6443 18.9561 35.6951 21.5031C36.7458 24.0502 36.6319 26.9614 35.3784 29.5963C34.1249 32.2313 31.8344 34.3741 29.0109 35.5534Z" fill="url(#paint0_radial_214_585)"/>
</g>
<path d="M41.0209 19.3561C41.029 21.0199 40.6995 22.6689 40.0514 24.2084C39.4033 25.7479 38.4494 27.1475 37.2443 28.3268C36.0393 29.5061 34.607 30.442 33.0296 31.0805C31.4522 31.7191 29.7609 32.0478 28.0527 32.0478C26.3445 32.0478 24.6531 31.7191 23.0757 31.0805C21.4983 30.442 20.066 29.5061 18.861 28.3268C17.656 27.1475 16.702 25.7479 16.054 24.2084C15.4059 22.6689 15.0764 21.0199 15.0845 19.3561C15.0764 17.6922 15.4059 16.0432 16.054 14.5037C16.702 12.9642 17.656 11.5646 18.861 10.3853C20.066 9.20596 21.4983 8.27014 23.0757 7.63159C24.6531 6.99303 26.3445 6.66431 28.0527 6.66431C29.7609 6.66431 31.4522 6.99303 33.0296 7.63159C34.607 8.27014 36.0393 9.20596 37.2443 10.3853C38.4494 11.5646 39.4033 12.9642 40.0514 14.5037C40.6995 16.0432 41.029 17.6922 41.0209 19.3561Z" fill="url(#paint1_radial_214_585)"/>
<g opacity="0.30288" filter="url(#filter1_f_214_585)">
<path d="M26.696 27.6313C24.2621 28.7779 21.4792 29.1485 18.9594 28.6618C16.4396 28.175 14.3893 26.8706 13.2596 25.0357C12.1299 23.2007 12.0133 20.9854 12.9354 18.8771C13.8576 16.7688 15.743 14.9402 18.1769 13.7937C20.6107 12.6471 23.3936 12.2764 25.9135 12.7632C28.4333 13.2499 30.4836 14.5543 31.6133 16.3893C32.743 18.2243 32.8596 20.4395 31.9374 22.5478C31.0152 24.6561 29.1298 26.4847 26.696 27.6313Z" fill="url(#paint2_radial_214_585)"/>
</g>
<g filter="url(#filter2_f_214_585)">
<path d="M37.7339 16.7847C37.7389 17.8112 37.5356 18.8286 37.1358 19.7784C36.736 20.7282 36.1474 21.5916 35.404 22.3192C34.6606 23.0468 33.7769 23.6241 32.8038 24.0181C31.8306 24.4121 30.7871 24.6149 29.7333 24.6149C28.6794 24.6149 27.636 24.4121 26.6628 24.0181C25.6897 23.6241 24.806 23.0468 24.0626 22.3192C23.3192 21.5916 22.7306 20.7282 22.3308 19.7784C21.931 18.8286 21.7277 17.8112 21.7327 16.7847C21.7277 15.7582 21.931 14.7408 22.3308 13.7911C22.7306 12.8413 23.3192 11.9778 24.0626 11.2502C24.806 10.5227 25.6897 9.94531 26.6628 9.55135C27.636 9.15739 28.6794 8.95459 29.7333 8.95459C30.7871 8.95459 31.8306 9.15739 32.8038 9.55135C33.7769 9.94531 34.6606 10.5227 35.404 11.2502C36.1474 11.9778 36.736 12.8413 37.1358 13.7911C37.5356 14.7408 37.7389 15.7582 37.7339 16.7847Z" fill="url(#paint3_radial_214_585)"/>
</g>
<path opacity="0.74038" fill-rule="evenodd" clip-rule="evenodd" d="M20.9712 27.4554C18.2104 25.3074 17.4672 24.0904 17.8875 21.6201C19.0846 24.8202 20.8497 27.2727 20.9712 27.4554Z" fill="url(#paint4_radial_214_585)"/>
<path d="M44.9999 10.5089C45.0056 11.7118 44.7748 12.8867 44.3209 13.966C43.867 15.0453 43.1989 16.0077 42.355 16.798C41.511 17.5883 40.5079 18.1908 39.4032 18.5711C38.2984 18.9514 37.1139 19.1019 35.9175 19.0139C34.7212 18.9259 33.5366 18.6012 32.4319 18.0584C31.3272 17.5157 30.324 16.7655 29.4801 15.8511C28.6362 14.9367 27.968 13.876 27.5142 12.73C27.0603 11.5839 26.8295 10.3751 26.8352 9.17297C26.8295 7.96999 27.0603 6.79513 27.5142 5.71585C27.968 4.63657 28.6362 3.67415 29.4801 2.88386C30.324 2.09357 31.3272 1.49098 32.4319 1.11071C33.5366 0.730437 34.7212 0.579972 35.9175 0.667955C37.1139 0.755938 38.2984 1.08064 39.4032 1.6234C40.5079 2.16617 41.511 2.9163 42.355 3.83072C43.1989 4.74515 43.867 5.80584 44.3209 6.95188C44.7748 8.09792 45.0056 9.30672 44.9999 10.5089Z" fill="url(#paint5_radial_214_585)"/>
<path fill-rule="evenodd" clip-rule="evenodd" d="M38.0182 1.80713C42.416 4.65802 43.677 6.27873 43.3456 9.58253C41.1643 5.31503 38.2222 2.05032 38.0182 1.80713Z" fill="url(#paint6_radial_214_585)"/>
<defs>
<filter id="filter0_f_214_585" x="0.939079" y="2.61633" width="48.2196" height="46.6668" filterUnits="userSpaceOnUse" color-interpolation-filters="sRGB">
<feFlood flood-opacity="0" result="BackgroundImageFix"/>
<feBlend mode="normal" in="SourceGraphic" in2="BackgroundImageFix" result="shape"/>
<feGaussianBlur stdDeviation="6.37513" result="effect1_foregroundBlur_214_585"/>
</filter>
<filter id="filter1_f_214_585" x="5.5121" y="5.74684" width="33.8487" height="29.9312" filterUnits="userSpaceOnUse" color-interpolation-filters="sRGB">
<feFlood flood-opacity="0" result="BackgroundImageFix"/>
<feBlend mode="normal" in="SourceGraphic" in2="BackgroundImageFix" result="shape"/>
<feGaussianBlur stdDeviation="3.40356" result="effect1_foregroundBlur_214_585"/>
</filter>
<filter id="filter2_f_214_585" x="20.3074" y="7.52935" width="18.8519" height="18.5108" filterUnits="userSpaceOnUse" color-interpolation-filters="sRGB">
<feFlood flood-opacity="0" result="BackgroundImageFix"/>
<feBlend mode="normal" in="SourceGraphic" in2="BackgroundImageFix" result="shape"/>
<feGaussianBlur stdDeviation="0.712622" result="effect1_foregroundBlur_214_585"/>
</filter>
<radialGradient id="paint0_radial_214_585" cx="0" cy="0" r="1" gradientUnits="userSpaceOnUse" gradientTransform="translate(28.2951 24.3183) rotate(75.8531) scale(17.5089 15.0106)">
<stop stop-opacity="0.99107"/>
<stop offset="0.51389" stop-opacity="0.61607"/>
<stop offset="1" stop-color="#8D8D8D" stop-opacity="0"/>
</radialGradient>
<radialGradient id="paint1_radial_214_585" cx="0" cy="0" r="1" gradientUnits="userSpaceOnUse" gradientTransform="translate(32.6327 19.3561) scale(12.9683 12.6319)">
<stop stop-color="#F60000"/>
<stop offset="1" stop-color="#B30000"/>
</radialGradient>
<radialGradient id="paint2_radial_214_585" cx="0" cy="0" r="1" gradientUnits="userSpaceOnUse" gradientTransform="translate(25.214 19.1855) rotate(67.7812) scale(13.4765 13.3268)">
<stop stop-opacity="0.99107"/>
<stop offset="0.51389" stop-opacity="0.61607"/>
<stop offset="1" stop-color="#8D8D8D" stop-opacity="0"/>
</radialGradient>
<radialGradient id="paint3_radial_214_585" cx="0" cy="0" r="1" gradientUnits="userSpaceOnUse" gradientTransform="translate(29.7337 16.7847) scale(8.00069 7.79323)">
<stop stop-color="#7F0000" stop-opacity="0.58407"/>
<stop offset="0.66667" stop-color="#840000" stop-opacity="0.49804"/>
<stop offset="1" stop-opacity="0"/>
</radialGradient>
<radialGradient id="paint4_radial_214_585" cx="0" cy="0" r="1" gradientUnits="userSpaceOnUse" gradientTransform="translate(18.2026 24.6627) rotate(147.734) scale(1.53686 6.08699)">
<stop stop-color="white"/>
<stop offset="1" stop-color="white" stop-opacity="0"/>
</radialGradient>
<radialGradient id="paint5_radial_214_585" cx="0" cy="0" r="1" gradientUnits="userSpaceOnUse" gradientTransform="translate(36.7819 8.59563) rotate(44.4239) scale(9.59215 9.25315)">
<stop stop-color="#D43500"/>
<stop offset="0.48052" stop-color="#D42400"/>
<stop offset="0.73611" stop-color="#D40000"/>
<stop offset="1" stop-color="#950000"/>
</radialGradient>
<radialGradient id="paint6_radial_214_585" cx="0" cy="0" r="1" gradientUnits="userSpaceOnUse" gradientTransform="translate(42.5109 5.54814) rotate(-30.8807) scale(2.15383 8.70225)">
<stop stop-color="white"/>
<stop offset="1" stop-color="white" stop-opacity="0"/>
</radialGradient>
</defs>
</svg>
