<svg width="12" height="12" viewBox="0 0 12 12" fill="none" xmlns="http://www.w3.org/2000/svg">
<path d="M6 0C2.6879 0 0 2.6879 0 6C0 9.3121 2.6879 12 6 12C9.3121 12 12 9.3121 12 6C12 2.6879 9.3121 0 6 0Z" fill="#1ED760"/>
<path d="M9.8371 5.39758C9.71129 5.39758 9.63387 5.36613 9.525 5.30323C7.80242 4.275 4.72258 4.02823 2.72903 4.58468C2.64194 4.60887 2.53306 4.64758 2.41694 4.64758C2.09758 4.64758 1.85323 4.39839 1.85323 4.07661C1.85323 3.74758 2.05645 3.56129 2.27419 3.49839C3.12581 3.24919 4.07903 3.13065 5.11694 3.13065C6.88306 3.13065 8.73387 3.49839 10.0863 4.2871C10.275 4.39597 10.3984 4.54597 10.3984 4.83387C10.3984 5.1629 10.1323 5.39758 9.8371 5.39758ZM9.0871 7.24113C8.96129 7.24113 8.87661 7.18548 8.78952 7.13952C7.27742 6.24435 5.02258 5.88387 3.01694 6.42823C2.90081 6.45968 2.8379 6.49113 2.72903 6.49113C2.47016 6.49113 2.25968 6.28064 2.25968 6.02177C2.25968 5.7629 2.38548 5.59113 2.63468 5.52097C3.30726 5.33226 3.99435 5.19194 5.00081 5.19194C6.57097 5.19194 8.0879 5.58145 9.28306 6.29274C9.47903 6.40887 9.55645 6.55887 9.55645 6.76935C9.55403 7.03064 9.35081 7.24113 9.0871 7.24113ZM8.43629 8.82823C8.33468 8.82823 8.27177 8.79677 8.17742 8.74113C6.66774 7.83145 4.91129 7.79274 3.17661 8.14839C3.08226 8.17258 2.95887 8.21129 2.88871 8.21129C2.65403 8.21129 2.50645 8.025 2.50645 7.82903C2.50645 7.57984 2.65403 7.46129 2.83548 7.42258C4.81694 6.98468 6.84194 7.02339 8.56936 8.05645C8.71694 8.15081 8.80403 8.23548 8.80403 8.45564C8.80403 8.67581 8.63226 8.82823 8.43629 8.82823Z" fill="black"/>
</svg>
