<svg width="14" height="14" viewBox="0 0 14 14" fill="none" xmlns="http://www.w3.org/2000/svg">
<path d="M6.81921 13.5935L13.5935 6.81921C13.8645 6.59311 14 6.23239 14 5.8708V1.35487C14 0.58682 13.4132 0 12.6451 0H8.1292C7.76761 0 7.40689 0.135487 7.18079 0.40646L0.40646 7.18079C0.135487 7.45177 0 7.81335 0 8.1292C0 8.44505 0.135487 8.80663 0.40646 9.07761L4.92239 13.5935C5.41947 14.1355 6.32213 14.1355 6.81921 13.5935ZM9.9354 3.16107C9.9354 2.66399 10.3419 2.25753 10.8389 2.25753C11.336 2.25753 11.7425 2.66399 11.7425 3.16107C11.7425 3.65814 11.336 4.0646 10.8389 4.0646C10.3419 4.0646 9.9354 3.65814 9.9354 3.16107Z" fill="#BAB7A4"/>
</svg>
