<svg width="20" height="21" viewBox="0 0 20 21" fill="none" xmlns="http://www.w3.org/2000/svg">
<g id="Logo/Botnet" clip-path="url(#clip0_616_88502)">
<path id="Union" fill-rule="evenodd" clip-rule="evenodd" d="M0 12.332C0 14.736 0.358711 17.26 2.4852 18.8668C3.46759 19.6091 4.63247 19.9955 5.83367 20.2116C7.03522 20.4277 8.43123 20.4999 10 20.4999C11.5688 20.4999 12.9648 20.4277 14.1664 20.2116C15.3675 19.9955 16.5324 19.6091 17.5148 18.8668C19.6413 17.2601 20 14.736 20 12.332C20 9.92801 19.6413 7.40396 17.5148 5.79721C16.5324 5.05492 15.3675 4.66849 14.1663 4.45243C12.9648 4.23631 11.5688 4.16406 9.99999 4.16406C8.43119 4.16406 7.03519 4.2363 5.83365 4.45242C4.63245 4.66848 3.46757 5.05489 2.48518 5.79718C0.358693 7.40392 0 9.92798 0 12.332ZM10 18.0572C3.93987 18.0572 2.42424 16.913 2.42424 12.332C2.42424 7.75094 3.93983 6.60681 9.99999 6.60681C16.0601 6.60681 17.5758 7.75098 17.5758 12.332C17.5758 16.9131 16.0601 18.0572 10 18.0572Z" fill="#44373C"/>
<path id="Union_2" d="M8.18164 2.02672C8.18164 1.18353 8.86 0.5 9.69679 0.5H10.3029C11.1396 0.5 11.818 1.18353 11.818 2.02672C11.818 2.8699 11.1396 3.55344 10.3029 3.55344H9.69679C8.86 3.55344 8.18164 2.8699 8.18164 2.02672Z" fill="#44373C"/>
<g id="Union_3">
<path d="M5.75781 12.0267C5.75781 11.3521 6.3005 10.8053 6.96993 10.8053C7.63937 10.8053 8.18205 11.3521 8.18205 12.0267V12.6374C8.18205 13.3119 7.63937 13.8587 6.96993 13.8587C6.3005 13.8587 5.75781 13.3119 5.75781 12.6374V12.0267Z" fill="#44373C"/>
<path d="M13.0305 10.8053C12.3611 10.8053 11.8184 11.3521 11.8184 12.0267V12.6374C11.8184 13.3119 12.3611 13.8587 13.0305 13.8587C13.7 13.8587 14.2427 13.3119 14.2427 12.6374V12.0267C14.2427 11.3521 13.7 10.8053 13.0305 10.8053Z" fill="#44373C"/>
</g>
</g>
<defs>
<clipPath id="clip0_616_88502">
<rect width="20" height="20" fill="white" transform="translate(0 0.5)"/>
</clipPath>
</defs>
</svg>
