<svg width="26" height="20" viewBox="0 0 26 20" fill="none" xmlns="http://www.w3.org/2000/svg">
<path d="M9.47057 0L7.99998 2.94118H2.99999C1.85913 2.94118 0.941162 3.85915 0.941162 5V17.9412C0.941162 19.082 1.85913 20 2.99999 20H23C24.1408 20 25.0588 19.082 25.0588 17.9412V5C25.0588 3.85915 24.1408 2.94118 23 2.94118H18L16.5294 0H9.47057ZM13 5C16.5594 5 19.4706 7.91129 19.4706 11.4706C19.4706 15.0299 16.5593 17.9412 13 17.9412C9.44069 17.9412 6.5294 15.0299 6.5294 11.4706C6.5294 7.91129 9.44069 5 13 5ZM13 7.35294C10.7125 7.35294 8.88234 9.18315 8.88234 11.4706C8.88234 13.7592 10.7125 15.5882 13 15.5882C15.2886 15.5882 17.1176 13.7592 17.1176 11.4706C17.1176 9.182 15.2886 7.35294 13 7.35294Z" fill="#725C4E"/>
</svg>
