<svg width="14" height="15" viewBox="0 0 14 15" fill="none" xmlns="http://www.w3.org/2000/svg">
<path d="M7.48297 1.90834L5.82302 3.56828C5.62459 3.76671 5.63718 4.07645 5.82302 4.26229C6.00886 4.44813 6.33119 4.44813 6.51703 4.26229L8.17698 2.60235C9.27944 1.49988 11.0885 1.4999 12.1909 2.60234C13.2934 3.70479 13.2934 5.51385 12.1909 6.61629L10.531 8.27624C10.3326 8.47467 10.3451 8.78441 10.531 8.97025C10.7294 9.16868 11.0391 9.15609 11.225 8.97025L12.8849 7.3103C14.3717 5.82357 14.3717 3.395 12.8849 1.90824C11.3982 0.421472 8.96973 0.421572 7.48297 1.90834Z" fill="#BAB7A4"/>
<path d="M7.48297 11.3244L5.82302 12.9843C4.72055 14.0868 2.91152 14.0867 1.80907 12.9843C0.706632 11.8819 0.706631 10.0728 1.80907 8.97035L3.46902 7.3104C3.66745 7.11197 3.65486 6.80224 3.46902 6.61639C3.28318 6.43055 2.96085 6.43055 2.77501 6.61639L1.11506 8.27634C-0.371676 9.76308 -0.3717 12.1916 1.11506 13.6784C2.60183 15.1652 5.03037 15.1652 6.51713 13.6784L8.17708 12.0185C8.37551 11.82 8.36292 11.5103 8.17708 11.3245C7.97865 11.126 7.6814 11.1259 7.48297 11.3244Z" fill="#BAB7A4"/>
<path d="M3.98925 10.8041C4.18768 11.0025 4.49742 10.99 4.68326 10.8041L10.0107 5.47663C10.2092 5.2782 10.1966 4.96847 10.0107 4.78262C9.81232 4.58419 9.50258 4.59678 9.31674 4.78262L3.98925 10.1101C3.79082 10.3085 3.79082 10.6057 3.98925 10.8041Z" fill="#BAB7A4"/>
</svg>
