<svg width="10" height="12" viewBox="0 0 10 12" fill="none" xmlns="http://www.w3.org/2000/svg">
<path d="M1.48615 12H3.16571C3.48493 12 3.72802 11.9165 3.89499 11.7496C4.06197 11.5826 4.14545 11.337 4.14545 11.0129V0.979744C4.14545 0.645796 4.06197 0.399018 3.89499 0.239411C3.72802 0.0798036 3.48493 0 3.16571 0H1.48615C1.16203 0 0.917704 0.0834868 0.753186 0.25046C0.588668 0.417434 0.506409 0.660528 0.506409 0.979744V11.0129C0.506409 11.337 0.588668 11.5826 0.753186 11.7496C0.917704 11.9165 1.16203 12 1.48615 12ZM6.84159 12H8.51375C8.83791 12 9.08224 11.9165 9.24673 11.7496C9.41127 11.5826 9.49355 11.337 9.49355 11.0129V0.979744C9.49355 0.645796 9.41127 0.399018 9.24673 0.239411C9.08224 0.0798036 8.83791 0 8.51375 0H6.84159C6.51746 0 6.27191 0.0834868 6.10494 0.25046C5.93796 0.417434 5.85447 0.660528 5.85447 0.979744V11.0129C5.85447 11.337 5.93796 11.5826 6.10494 11.7496C6.27191 11.9165 6.51746 12 6.84159 12Z" fill="#725C4E"/>
</svg>
