<svg width="14" height="13" viewBox="0 0 14 13" fill="none" xmlns="http://www.w3.org/2000/svg">
<path d="M13.9995 5.04313C14.0012 3.8723 13.4992 2.75728 12.6214 1.98184C11.7443 1.20694 10.5757 0.846016 9.41358 0.992031C8.25205 1.13805 7.2092 1.77678 6.5508 2.74478C5.68185 2.83009 4.85448 3.15656 4.16164 3.68702C3.46877 4.21802 2.93886 4.93221 2.63092 5.74916C1.5208 6.03188 0.619605 6.84069 0.219777 7.91419C-0.179981 8.98768 -0.0284917 10.1891 0.626086 11.1292C1.28068 12.0692 2.35419 12.6287 3.49978 12.6264H11.0831C11.8651 12.6297 12.6159 12.3169 13.1649 11.7597C13.7134 11.2024 14.0148 10.4467 13.9994 9.66464C13.9841 8.88264 13.6538 8.13939 13.0835 7.60404C13.6762 6.8822 13.9995 5.97718 13.9995 5.04313ZM12.0921 6.97409C11.9439 6.91886 11.7919 6.8762 11.6371 6.84558C11.5234 5.88584 11.1159 4.98462 10.4707 4.26546C9.82536 3.5458 8.97396 3.04323 8.03221 2.82672C8.59876 2.34056 9.33099 2.09174 10.0764 2.13057C10.8218 2.16939 11.524 2.49369 12.0369 3.03561C12.5499 3.57809 12.8353 4.29666 12.8332 5.04315C12.8326 5.75626 12.569 6.44365 12.0921 6.97409Z" fill="#BAB7A4"/>
</svg>
